<svg xmlns="http://www.w3.org/2000/svg" xmlns:xlink="http://www.w3.org/1999/xlink" width="850" height="448" viewBox="0 0 850 448">
  
    <defs>
      <style type="text/css">
        <![CDATA[
          @import url('https://fonts.googleapis.com/css2?family=Inter:wght@400;500;600;700&display=swap');
          
          .card-text {
            font-family: 'Inter', 'Segoe UI', -apple-system, BlinkMacSystemFont, system-ui, sans-serif;
          }
          
          @keyframes fadeIn {
            from { opacity: 0; transform: translateY(-5px); }
            to { opacity: 1; transform: translateY(0); }
          }
          @keyframes slideIn {
            from { opacity: 0; transform: translateX(-10px); }
            to { opacity: 1; transform: translateX(0); }
          }
          @keyframes pulse {
        0%, 100% { opacity: 1; }
        50% { opacity: 0.7; }
      }
      @keyframes glow {
        0%, 100% { filter: drop-shadow(0 0 2px #f8d84740); }
        50% { filter: drop-shadow(0 0 8px #f8d84760); }
      }
      @keyframes rankPulse {
        0%, 100% { transform: scale(1); }
        50% { transform: scale(1.02); }
      }
      .animate-fade { animation: fadeIn 0.5s ease-out forwards; }
      .animate-slide { animation: slideIn 0.6s ease-out forwards; }
      .animate-pulse { animation: pulse 2s ease-in-out infinite; }
      .animate-glow { animation: glow 3s ease-in-out infinite; }
      .animate-rank { animation: rankPulse 2s ease-in-out infinite; }
      .stat-item { animation: fadeIn 0.5s ease-out forwards; }
      .lang-bar { animation: slideIn 0.8s ease-out forwards; }
        ]]>
      </style>
    </defs>
  
  
    <defs>
      <linearGradient id="bgGradient" x1="0%" y1="0%" x2="100%" y2="100%">
        <stop offset="0%" style="stop-color:#141321;stop-opacity:1" />
        <stop offset="50%" style="stop-color:#1a1b27;stop-opacity:1" />
        <stop offset="100%" style="stop-color:#141321;stop-opacity:1" />
      </linearGradient>
      <linearGradient id="accentGradient" x1="0%" y1="0%" x2="100%" y2="0%">
        <stop offset="0%" style="stop-color:#f8d847;stop-opacity:1" />
        <stop offset="100%" style="stop-color:#a9fef7;stop-opacity:1" />
      </linearGradient>
      <linearGradient id="rankGradient" x1="0%" y1="0%" x2="100%" y2="100%">
        <stop offset="0%" style="stop-color:#f8d847;stop-opacity:0.2" />
        <stop offset="100%" style="stop-color:#a9fef7;stop-opacity:0.2" />
      </linearGradient>
      <filter id="glow">
        <feGaussianBlur stdDeviation="2" result="coloredBlur"/>
        <feMerge>
          <feMergeNode in="coloredBlur"/>
          <feMergeNode in="SourceGraphic"/>
        </feMerge>
      </filter>
      <clipPath id="avatarClip">
        <circle cx="50" cy="50" r="45" />
      </clipPath>
    </defs>
  
  
  <!-- Gradient Border Definition -->
  <defs>
    <linearGradient id="borderGradient" x1="0%" y1="0%" x2="100%" y2="100%">
      <stop offset="0%" style="stop-color:#f8d847" />
      <stop offset="50%" style="stop-color:#a9fef7" />
      <stop offset="100%" style="stop-color:#f8d847" />
    </linearGradient>
  </defs>
  
  <!-- Main Background with gradient border -->
  <rect x="0" y="0" width="850" height="448" rx="16" fill="#141321"/>
  <rect x="1" y="1" width="848" height="446" rx="15" fill="none" stroke="url(#borderGradient)" stroke-width="2"/>
  
  
  <g transform="translate(40, 36)">
      <rect x="0" y="0" width="377" height="200" rx="14" fill="#1a1b27" stroke="#fe428e" stroke-width="1"/>
      <g transform="translate(24, 28)">
    <g transform="translate(0, -1) scale(1.125)">
      <path fill="#f8d847" d="M6 2a.75.75 0 0 1 .696.471L10 10.731l1.304-3.26A.751.751 0 0 1 12 7h3.25a.75.75 0 0 1 0 1.5h-2.742l-1.812 4.528a.751.751 0 0 1-1.392 0L6 4.770 4.696 8.029A.75.75 0 0 1 4 8.5H.75a.75.75 0 0 1 0-1.5h2.742l1.812-4.529A.751.751 0 0 1 6 2Z" />
    </g>
  <text x="28" y="13" font-size="16" font-weight="600" fill="#fe428e" font-family="'Inter', 'Segoe UI', -apple-system, BlinkMacSystemFont, system-ui, sans-serif" letter-spacing="0.3">GitHub Stats</text></g>
      <g transform="translate(24, 60)"><g transform="translate(0, 0)">
    <g transform="translate(0, 0) scale(1)">
      <path fill="#fbbf24" d="M8 .25a.75.75 0 01.673.418l1.882 3.815 4.21.612a.75.75 0 01.416 1.279l-3.046 2.97.719 4.192a.75.75 0 01-1.088.791L8 12.347l-3.766 1.98a.75.75 0 01-1.088-.79l.72-4.194L.818 6.374a.75.75 0 01.416-1.28l4.21-.611L7.327.668A.75.75 0 018 .25z" />
    </g>
  <text x="26" y="12" font-size="13" fill="#a9fef7" font-family="'Inter', 'Segoe UI', -apple-system, BlinkMacSystemFont, system-ui, sans-serif" letter-spacing="0.3">Total Stars Earned</text><text x="230" y="12" font-size="14" font-weight="600" fill="#f8f8f2" font-family="'Inter', 'Segoe UI', -apple-system, BlinkMacSystemFont, system-ui, sans-serif" text-anchor="end" letter-spacing="0.2">0</text></g><g transform="translate(0, 27)">
    <g transform="translate(0, 0) scale(1)">
      <path fill="#34d399" d="M11.93 8.5a4.002 4.002 0 0 1-7.86 0H.75a.75.75 0 0 1 0-1.5h3.32a4.002 4.002 0 0 1 7.86 0h3.32a.75.75 0 0 1 0 1.5Zm-1.43-.75a2.5 2.5 0 1 0-5 0 2.5 2.5 0 0 0 5 0Z" />
    </g>
  <text x="26" y="12" font-size="13" fill="#a9fef7" font-family="'Inter', 'Segoe UI', -apple-system, BlinkMacSystemFont, system-ui, sans-serif" letter-spacing="0.3">Contributions (12mo)</text><text x="230" y="12" font-size="14" font-weight="600" fill="#f8f8f2" font-family="'Inter', 'Segoe UI', -apple-system, BlinkMacSystemFont, system-ui, sans-serif" text-anchor="end" letter-spacing="0.2">2,086</text></g><g transform="translate(0, 54)">
    <g transform="translate(0, 0) scale(1)">
      <path fill="#a78bfa" d="M1.5 3.25a2.25 2.25 0 1 1 3 2.122v5.256a2.251 2.251 0 1 1-1.5 0V5.372A2.25 2.25 0 0 1 1.5 3.25Zm5.677-.177L9.573.677A.25.25 0 0 1 10 .854V2.5h1A2.5 2.5 0 0 1 13.5 5v5.628a2.251 2.251 0 1 1-1.5 0V5a1 1 0 0 0-1-1h-1v1.646a.25.25 0 0 1-.427.177L7.177 3.427a.25.25 0 0 1 0-.354ZM3.75 2.5a.75.75 0 1 0 0 1.5.75.75 0 0 0 0-1.5Zm0 9.5a.75.75 0 1 0 0 1.5.75.75 0 0 0 0-1.5Zm8.25.75a.75.75 0 1 0 1.5 0 .75.75 0 0 0-1.5 0Z" />
    </g>
  <text x="26" y="12" font-size="13" fill="#a9fef7" font-family="'Inter', 'Segoe UI', -apple-system, BlinkMacSystemFont, system-ui, sans-serif" letter-spacing="0.3">Pull Requests (12mo)</text><text x="230" y="12" font-size="14" font-weight="600" fill="#f8f8f2" font-family="'Inter', 'Segoe UI', -apple-system, BlinkMacSystemFont, system-ui, sans-serif" text-anchor="end" letter-spacing="0.2">3</text></g><g transform="translate(0, 81)">
    <g transform="translate(0, 0) scale(1)">
      <path fill="#f472b6" d="M8 9.5a1.5 1.5 0 1 0 0-3 1.5 1.5 0 0 0 0 3Z M8 0a8 8 0 1 1 0 16A8 8 0 0 1 8 0ZM1.5 8a6.5 6.5 0 1 0 13 0 6.5 6.5 0 0 0-13 0Z" />
    </g>
  <text x="26" y="12" font-size="13" fill="#a9fef7" font-family="'Inter', 'Segoe UI', -apple-system, BlinkMacSystemFont, system-ui, sans-serif" letter-spacing="0.3">Issues (12mo)</text><text x="230" y="12" font-size="14" font-weight="600" fill="#f8f8f2" font-family="'Inter', 'Segoe UI', -apple-system, BlinkMacSystemFont, system-ui, sans-serif" text-anchor="end" letter-spacing="0.2">0</text></g><g transform="translate(0, 108)">
    <g transform="translate(0, 0) scale(1)">
      <path fill="#60a5fa" d="M5 3.25a.75.75 0 11-1.5 0 .75.75 0 011.5 0zm0 2.122a2.25 2.25 0 10-1.5 0v.878A2.25 2.25 0 005.75 8.5h1.5v2.128a2.251 2.251 0 101.5 0V8.5h1.5a2.25 2.25 0 002.25-2.25v-.878a2.25 2.25 0 10-1.5 0v.878a.75.75 0 01-.75.75h-4.5A.75.75 0 015 6.25v-.878zm3.75 7.378a.75.75 0 11-1.5 0 .75.75 0 011.5 0zm3-8.75a.75.75 0 100-1.5.75.75 0 000 1.5z" />
    </g>
  <text x="26" y="12" font-size="13" fill="#a9fef7" font-family="'Inter', 'Segoe UI', -apple-system, BlinkMacSystemFont, system-ui, sans-serif" letter-spacing="0.3">Contributed To (12mo)</text><text x="230" y="12" font-size="14" font-weight="600" fill="#f8f8f2" font-family="'Inter', 'Segoe UI', -apple-system, BlinkMacSystemFont, system-ui, sans-serif" text-anchor="end" letter-spacing="0.2">23</text></g></g>
      <g transform="translate(290, 62)">
        <circle cx="36" cy="36" r="42" fill="#141321" stroke="#c4b5fd" stroke-width="3"/>
        <circle cx="36" cy="36" r="34" fill="#c4b5fd" opacity="0.12"/>
        <text x="36" y="44" text-anchor="middle" font-size="28" font-weight="700" fill="#c4b5fd" font-family="'Inter', 'Segoe UI', -apple-system, BlinkMacSystemFont, system-ui, sans-serif" letter-spacing="0.5">C+</text>
      </g>
      <text x="326" y="168" text-anchor="middle" font-size="12" font-weight="500" fill="#a9fef7" font-family="'Inter', 'Segoe UI', -apple-system, BlinkMacSystemFont, system-ui, sans-serif" letter-spacing="0.3">Rating</text>
    </g>
  <g transform="translate(433, 36)">
      <rect x="0" y="0" width="377" height="200" rx="14" fill="#1a1b27" stroke="#fe428e" stroke-width="1"/>
      <g transform="translate(24, 28)">
    <g transform="translate(0, -1) scale(1.125)">
      <path fill="#f8d847" d="M4.72 3.22a.75.75 0 0 1 1.06 1.06L2.06 8l3.72 3.72a.75.75 0 1 1-1.06 1.06L.47 8.53a.75.75 0 0 1 0-1.06Zm6.56 0a.75.75 0 1 0-1.06 1.06L13.94 8l-3.72 3.72a.75.75 0 1 0 1.06 1.06l4.25-4.25a.75.75 0 0 0 0-1.06Z" />
    </g>
  <text x="28" y="13" font-size="16" font-weight="600" fill="#fe428e" font-family="'Inter', 'Segoe UI', -apple-system, BlinkMacSystemFont, system-ui, sans-serif" letter-spacing="0.3">Most Used Languages</text></g>
      <g transform="translate(24, 60)">
        <defs><clipPath id="langBarClip"><rect x="0" y="0" width="329" height="12" rx="6"/></clipPath></defs>
        <rect x="0" y="0" width="329" height="12" rx="6" fill="#141321"/>
        <g clip-path="url(#langBarClip)"><rect x="0" y="0" width="219.56200826296686" height="12" fill="#3178c6"/><rect x="219.56200826296686" y="0" width="60.23146664474088" height="12" fill="#DA5B0B"/><rect x="279.7934749077077" y="0" width="17.750249214750454" height="12" fill="#a91e50"/><rect x="297.5437241224582" y="0" width="12.324855251483816" height="12" fill="#3572A5"/><rect x="309.868579373942" y="0" width="8.20912591272512" height="12" fill="#f1e05a"/><rect x="318.07770528666714" y="0" width="6.331391242937853" height="12" fill="#663399"/><rect x="324.409096529605" y="0" width="2.5249654541189908" height="12" fill="#f34b7d"/><rect x="326.934061983724" y="0" width="2.065938016275993" height="12" fill="#DA3434"/></g>
      </g>
      <g transform="translate(24, 88)"><g transform="translate(0, 0)"><circle cx="6" cy="7" r="5" fill="#3178c6"/><text x="20" y="11" font-size="12" font-weight="500" fill="#f8f8f2" font-family="'Inter', 'Segoe UI', -apple-system, BlinkMacSystemFont, system-ui, sans-serif" letter-spacing="0.3">TypeScript</text><text x="155" y="11" font-size="12" fill="#a9fef7" font-family="'Inter', 'Segoe UI', -apple-system, BlinkMacSystemFont, system-ui, sans-serif" text-anchor="end" letter-spacing="0.2">66.0%</text></g><g transform="translate(0, 27)"><circle cx="6" cy="7" r="5" fill="#a91e50"/><text x="20" y="11" font-size="12" font-weight="500" fill="#f8f8f2" font-family="'Inter', 'Segoe UI', -apple-system, BlinkMacSystemFont, system-ui, sans-serif" letter-spacing="0.3">EJS</text><text x="155" y="11" font-size="12" fill="#a9fef7" font-family="'Inter', 'Segoe UI', -apple-system, BlinkMacSystemFont, system-ui, sans-serif" text-anchor="end" letter-spacing="0.2">5.3%</text></g><g transform="translate(0, 54)"><circle cx="6" cy="7" r="5" fill="#f1e05a"/><text x="20" y="11" font-size="12" font-weight="500" fill="#f8f8f2" font-family="'Inter', 'Segoe UI', -apple-system, BlinkMacSystemFont, system-ui, sans-serif" letter-spacing="0.3">JavaScript</text><text x="155" y="11" font-size="12" fill="#a9fef7" font-family="'Inter', 'Segoe UI', -apple-system, BlinkMacSystemFont, system-ui, sans-serif" text-anchor="end" letter-spacing="0.2">2.5%</text></g><g transform="translate(0, 81)"><circle cx="6" cy="7" r="5" fill="#f34b7d"/><text x="20" y="11" font-size="12" font-weight="500" fill="#f8f8f2" font-family="'Inter', 'Segoe UI', -apple-system, BlinkMacSystemFont, system-ui, sans-serif" letter-spacing="0.3">C++</text><text x="155" y="11" font-size="12" fill="#a9fef7" font-family="'Inter', 'Segoe UI', -apple-system, BlinkMacSystemFont, system-ui, sans-serif" text-anchor="end" letter-spacing="0.2">0.8%</text></g><g transform="translate(175, 0)"><circle cx="6" cy="7" r="5" fill="#DA5B0B"/><text x="20" y="11" font-size="12" font-weight="500" fill="#f8f8f2" font-family="'Inter', 'Segoe UI', -apple-system, BlinkMacSystemFont, system-ui, sans-serif" letter-spacing="0.3">Jupyter Notebook</text><text x="155" y="11" font-size="12" fill="#a9fef7" font-family="'Inter', 'Segoe UI', -apple-system, BlinkMacSystemFont, system-ui, sans-serif" text-anchor="end" letter-spacing="0.2">18.1%</text></g><g transform="translate(175, 27)"><circle cx="6" cy="7" r="5" fill="#3572A5"/><text x="20" y="11" font-size="12" font-weight="500" fill="#f8f8f2" font-family="'Inter', 'Segoe UI', -apple-system, BlinkMacSystemFont, system-ui, sans-serif" letter-spacing="0.3">Python</text><text x="155" y="11" font-size="12" fill="#a9fef7" font-family="'Inter', 'Segoe UI', -apple-system, BlinkMacSystemFont, system-ui, sans-serif" text-anchor="end" letter-spacing="0.2">3.7%</text></g><g transform="translate(175, 54)"><circle cx="6" cy="7" r="5" fill="#663399"/><text x="20" y="11" font-size="12" font-weight="500" fill="#f8f8f2" font-family="'Inter', 'Segoe UI', -apple-system, BlinkMacSystemFont, system-ui, sans-serif" letter-spacing="0.3">CSS</text><text x="155" y="11" font-size="12" fill="#a9fef7" font-family="'Inter', 'Segoe UI', -apple-system, BlinkMacSystemFont, system-ui, sans-serif" text-anchor="end" letter-spacing="0.2">1.9%</text></g><g transform="translate(175, 81)"><circle cx="6" cy="7" r="5" fill="#DA3434"/><text x="20" y="11" font-size="12" font-weight="500" fill="#f8f8f2" font-family="'Inter', 'Segoe UI', -apple-system, BlinkMacSystemFont, system-ui, sans-serif" letter-spacing="0.3">CMake</text><text x="155" y="11" font-size="12" fill="#a9fef7" font-family="'Inter', 'Segoe UI', -apple-system, BlinkMacSystemFont, system-ui, sans-serif" text-anchor="end" letter-spacing="0.2">0.6%</text></g></g>
    </g>
  
    <!-- Streak Section -->
    <g transform="translate(40, 257)">
      <!-- Total Contributions Card -->
      <g transform="translate(0, 0)">
        <rect x="0" y="0" width="246" height="140" rx="14" fill="#1a1b27" stroke="#fe428e" stroke-width="1"/>
        
        <g transform="translate(123, 28)">
          
    <g transform="translate(-10, 0) scale(1.25)">
      <path fill="#f8d847" d="M8.5.75a.75.75 0 00-1.5 0v5.19L4.28 3.22a.75.75 0 00-1.06 1.06L6.19 7.25H.75a.75.75 0 000 1.5h5.44L3.22 11.72a.75.75 0 101.06 1.06L7 10.06v5.19a.75.75 0 001.5 0v-5.19l2.72 2.72a.75.75 0 101.06-1.06l-2.72-2.72h5.19a.75.75 0 000-1.5h-5.19l2.72-2.72a.75.75 0 00-1.06-1.06L8.5 5.94V.75z" />
    </g>
  
        </g>
        
        <text x="123" y="70" text-anchor="middle" font-size="26" font-weight="700" fill="#f8d847" font-family="'Inter', 'Segoe UI', -apple-system, BlinkMacSystemFont, system-ui, sans-serif" letter-spacing="0.3">
          2,095
        </text>
        <text x="123" y="94" text-anchor="middle" font-size="12" font-weight="600" fill="#a9fef7" font-family="'Inter', 'Segoe UI', -apple-system, BlinkMacSystemFont, system-ui, sans-serif" letter-spacing="0.3">
          Total Contributions
        </text>
        <text x="123" y="116" text-anchor="middle" font-size="10" fill="#a9fef7" font-family="'Inter', 'Segoe UI', -apple-system, BlinkMacSystemFont, system-ui, sans-serif" opacity="0.7" letter-spacing="0.2">
          Jan 15, 2022 - Present
        </text>
      </g>
      
      <!-- Current Streak Card -->
      <g transform="translate(262, 0)">
        <rect x="0" y="0" width="246" height="140" rx="14" fill="#1a1b27" stroke="#fe428e" stroke-width="1"/>
        
        <!-- Circle Progress with fire icon on edge -->
        <g transform="translate(123, 58)">
          <circle cx="0" cy="0" r="32" fill="none" stroke="#fe428e" stroke-width="5" opacity="0.4"/>
          <circle cx="0" cy="0" r="32" fill="none" stroke="#f8d847" stroke-width="5" 
                  stroke-dasharray="201.06192982974676" 
                  stroke-dashoffset="0"
                  transform="rotate(-90)"
                  stroke-linecap="round"/>
          <!-- Fire icon positioned at top edge of circle - no background -->
          <g transform="translate(-10, -42)">
            
    <g transform="translate(0, 0) scale(1.25)">
      <path fill="#ff6b35" d="M7.998 14.5c2.832 0 5-1.98 5-4.5 0-1.463-.68-2.19-1.879-3.383l-.036-.037c-1.013-1.008-2.3-2.29-2.834-4.434-.322.256-.63.579-.864.953-.432.696-.621 1.58-.046 2.73.473.947.67 2.284-.278 3.232-.61.61-1.545.84-2.403.633a2.79 2.79 0 01-1.436-.874A3.198 3.198 0 003 10c0 2.53 2.164 4.5 4.998 4.5zM9.533.753C9.496.34 9.16.009 8.77.146 7.035.75 4.34 3.187 5.997 6.5c.344.689.285 1.218.003 1.5-.419.419-1.54.487-2.04-.832-.173-.454-.659-.762-1.035-.454C2.036 7.44 1.5 8.702 1.5 10c0 3.512 2.998 6 6.498 6s6.5-2.5 6.5-6c0-2.137-1.128-3.26-2.312-4.438-1.19-1.184-2.436-2.425-2.653-4.81z" />
    </g>
  
          </g>
          <text x="0" y="8" text-anchor="middle" font-size="22" font-weight="700" fill="#f8f8f2" font-family="'Inter', 'Segoe UI', -apple-system, BlinkMacSystemFont, system-ui, sans-serif" letter-spacing="0.3">
            151
          </text>
        </g>
        
        <text x="123" y="108" text-anchor="middle" font-size="12" font-weight="600" fill="#a9fef7" font-family="'Inter', 'Segoe UI', -apple-system, BlinkMacSystemFont, system-ui, sans-serif" letter-spacing="0.3">
          Current Streak
        </text>
        <text x="123" y="126" text-anchor="middle" font-size="10" fill="#a9fef7" font-family="'Inter', 'Segoe UI', -apple-system, BlinkMacSystemFont, system-ui, sans-serif" opacity="0.7" letter-spacing="0.2">
          Sep 28, 2025 - Feb 25, 2026
        </text>
      </g>
      
      <!-- Longest Streak Card -->
      <g transform="translate(524, 0)">
        <rect x="0" y="0" width="246" height="140" rx="14" fill="#1a1b27" stroke="#fe428e" stroke-width="1"/>
        
        <g transform="translate(123, 28)">
          
    <g transform="translate(-10, 0) scale(1.25)">
      <path fill="#a9fef7" d="M3.217 6.962A3.501 3.501 0 0 1 6.5 3.5h3a3.5 3.5 0 0 1 3.283 3.462l1.1-.275a.75.75 0 0 1 .867.98l-.633 1.9a.75.75 0 0 1-.634.513l-1.483.148V11a3 3 0 0 1-3 3H7a3 3 0 0 1-3-3v-.773l-1.483-.148a.75.75 0 0 1-.634-.513l-.633-1.9a.75.75 0 0 1 .867-.98ZM6.5 5a2 2 0 0 0-2 2v4a1.5 1.5 0 0 0 1.5 1.5h4A1.5 1.5 0 0 0 11.5 11V7a2 2 0 0 0-2-2Z" />
    </g>
  
        </g>
        
        <text x="123" y="70" text-anchor="middle" font-size="26" font-weight="700" fill="#a9fef7" font-family="'Inter', 'Segoe UI', -apple-system, BlinkMacSystemFont, system-ui, sans-serif" letter-spacing="0.3">
          151
        </text>
        <text x="123" y="94" text-anchor="middle" font-size="12" font-weight="600" fill="#a9fef7" font-family="'Inter', 'Segoe UI', -apple-system, BlinkMacSystemFont, system-ui, sans-serif" letter-spacing="0.3">
          Longest Streak
        </text>
        <text x="123" y="116" text-anchor="middle" font-size="10" fill="#a9fef7" font-family="'Inter', 'Segoe UI', -apple-system, BlinkMacSystemFont, system-ui, sans-serif" opacity="0.7" letter-spacing="0.2">
          Sep 28, 2025 - Feb 25, 2026
        </text>
      </g>
    </g>
  
  
</svg>